<svg width="342" height="215" viewBox="0 0 342 215" fill="none" xmlns="http://www.w3.org/2000/svg">
<g filter="url(#filter0_d_4_18)">
<rect x="4" width="334" height="207" rx="6" fill="#08864A"/>
</g>
<path d="M291.983 171.98C292.017 168.652 292.857 166.293 294.503 164.902C296.15 163.51 298.605 162.832 301.868 162.865L302.298 167.766C299.962 167.742 298.358 168.141 297.486 168.964C296.581 169.787 296.121 170.983 296.105 172.55C296.089 174.086 296.333 175.321 296.835 176.254C297.306 177.155 297.938 177.882 298.733 178.434C299.528 178.954 300.595 179.365 301.936 179.667C304.012 180.136 306.985 180.39 310.857 180.43C314.729 180.47 317.648 179.763 319.615 178.311C321.582 176.86 322.581 174.598 322.613 171.526C322.628 170.086 322.2 168.065 321.331 165.464C321.113 164.854 320.989 164.501 320.958 164.404L324.427 163.096C325.997 166.088 326.765 169.2 326.732 172.432C326.71 174.608 326.354 176.492 325.666 178.085C324.978 179.678 324.117 180.934 323.083 181.851C322.018 182.768 320.698 183.507 319.124 184.067C316.555 184.936 313.703 185.355 310.567 185.323C307.399 185.291 304.81 185.024 302.799 184.524C300.756 184.023 298.907 183.268 297.254 182.259C295.568 181.217 294.27 179.828 293.36 178.091C292.418 176.321 291.959 174.284 291.983 171.98ZM292.71 157.203L292.821 146.356C292.856 142.932 293.808 140.59 295.677 139.329C297.385 138.194 299.455 137.639 301.886 137.664C304.318 137.689 306.392 138.35 308.106 139.648C309.789 140.945 310.988 142.686 311.701 144.869L326.53 135.852L326.475 141.276L312.423 149.389L312.388 152.797L326.355 152.94L326.308 157.547L292.71 157.203ZM296.309 152.632L308.548 152.757L308.586 149.061C308.608 146.95 308.08 145.328 307.004 144.197C305.895 143.066 304.365 142.49 302.413 142.47C300.429 142.45 298.937 142.914 297.935 143.864C296.901 144.782 296.373 146.328 296.351 148.504L296.309 152.632ZM283.623 116.447L287.337 114.661L291.315 124.638L288.611 126.194L283.623 116.447ZM292.974 131.423L293.16 113.232L297.282 113.851L297.149 126.858L307.468 126.964L307.586 115.492L311.612 116.109L311.5 127.005L322.491 127.117L322.633 113.294L326.755 113.912L326.572 131.767L292.974 131.423ZM293.219 107.472L293.319 97.68C293.341 95.5682 293.712 93.7319 294.432 92.1711C295.12 90.5781 295.997 89.339 297.062 88.4539C298.127 87.5367 299.447 86.7982 301.021 86.2383C303.59 85.3685 306.762 84.953 310.538 84.9917C315.018 85.0375 318.8 86.0043 321.885 87.892C323.475 88.8683 324.725 90.2092 325.636 91.9146C326.515 93.6197 326.942 95.6082 326.919 97.88L326.817 107.816L293.219 107.472ZM297.298 102.905L322.833 103.166L322.882 98.3667C322.918 94.8149 321.614 92.4814 318.969 91.3663C317.663 90.8089 316.323 90.4272 314.949 90.2211C313.575 90.015 311.928 89.9021 310.008 89.8825C308.088 89.8628 306.423 89.9898 305.012 90.2634C303.569 90.5046 302.253 90.9231 301.063 91.519C298.618 92.806 297.378 95.1295 297.343 98.4893L297.298 102.905ZM293.567 73.4747L327.165 73.8187L327.118 78.4264L293.52 78.0824L293.567 73.4747ZM297.779 55.9313L327.345 56.234L327.298 60.8417L297.732 60.539L297.643 69.1786L293.616 68.7053L293.833 47.5384L297.86 48.0117L297.779 55.9313ZM300.089 27.2355C299.347 27.804 298.747 28.5979 298.288 29.6172C297.798 30.6363 297.545 31.8817 297.53 33.3537C297.515 34.7936 297.871 36.0293 298.596 37.0608C299.29 38.0599 300.322 38.8065 301.693 39.3006C304.021 40.1245 307.153 40.5565 311.089 40.5968C316.208 40.6493 319.672 39.9647 321.478 38.5431C323.156 37.2482 324.008 35.2408 324.036 32.521C324.049 31.241 323.804 30.1505 323.301 29.2493C322.767 28.3158 322.118 27.6051 321.355 27.1172C320.56 26.5971 319.525 26.1864 318.248 25.8854C316.268 25.4171 314.079 25.1706 311.679 25.1461C309.279 25.1215 307.519 25.1515 306.398 25.236C305.245 25.3202 304.091 25.5324 302.935 25.8726C301.748 26.1805 300.799 26.6348 300.089 27.2355ZM293.414 32.1595C293.497 24.0959 299.09 20.1209 310.193 20.2346C315.921 20.2932 320.357 21.4427 323.502 23.683C326.648 25.9234 328.198 29.2194 328.153 33.5712C328.071 41.6348 322.478 45.6097 311.375 45.496C305.647 45.4374 301.21 44.2879 298.065 42.0476C294.92 39.8073 293.37 36.5112 293.414 32.1595Z" fill="white" fill-opacity="0.54"/>
<defs>
<filter id="filter0_d_4_18" x="0" y="0" width="342" height="215" filterUnits="userSpaceOnUse" color-interpolation-filters="sRGB">
<feFlood flood-opacity="0" result="BackgroundImageFix"/>
<feColorMatrix in="SourceAlpha" type="matrix" values="0 0 0 0 0 0 0 0 0 0 0 0 0 0 0 0 0 0 127 0" result="hardAlpha"/>
<feOffset dy="4"/>
<feGaussianBlur stdDeviation="2"/>
<feComposite in2="hardAlpha" operator="out"/>
<feColorMatrix type="matrix" values="0 0 0 0 0 0 0 0 0 0 0 0 0 0 0 0 0 0 0.25 0"/>
<feBlend mode="normal" in2="BackgroundImageFix" result="effect1_dropShadow_4_18"/>
<feBlend mode="normal" in="SourceGraphic" in2="effect1_dropShadow_4_18" result="shape"/>
</filter>
</defs>
</svg>
