<svg width="342" height="223" viewBox="0 0 342 223" fill="none" xmlns="http://www.w3.org/2000/svg">
<g filter="url(#filter0_d_4_17)">
<rect x="4" y="8" width="334" height="207" rx="6" fill="#081586"/>
</g>
<path d="M284.444 183.218L284.544 173.426C284.565 171.314 284.936 169.478 285.656 167.917C286.345 166.324 287.221 165.085 288.286 164.2C289.352 163.283 290.672 162.544 292.245 161.984C294.814 161.115 297.987 160.699 301.763 160.738C306.242 160.784 310.025 161.75 313.11 163.638C314.7 164.614 315.95 165.955 316.861 167.661C317.739 169.366 318.167 171.354 318.144 173.626L318.042 183.562L284.444 183.218ZM288.523 178.651L314.057 178.913L314.106 174.113C314.143 170.561 312.839 168.227 310.194 167.112C308.887 166.555 307.547 166.173 306.173 165.967C304.799 165.761 303.152 165.648 301.233 165.629C299.313 165.609 297.647 165.736 296.236 166.009C294.794 166.251 293.477 166.669 292.287 167.265C289.842 168.552 288.602 170.875 288.568 174.235L288.523 178.651ZM275.393 138.852L279.108 137.066L283.086 147.043L280.382 148.6L275.393 138.852ZM284.744 153.828L284.931 135.637L289.053 136.256L288.919 149.263L299.239 149.369L299.356 137.897L303.382 138.514L303.271 149.41L314.262 149.522L314.404 135.699L318.526 136.317L318.343 154.172L284.744 153.828ZM284.99 129.877L285.108 118.357C285.136 115.605 285.877 113.581 287.33 112.284C288.784 110.954 290.566 110.301 292.678 110.322C294.758 110.344 296.481 110.889 297.846 111.959C299.211 112.997 300.093 114.414 300.49 116.211L300.682 116.213C301.214 111.162 304.088 108.663 309.304 108.716C311.895 108.743 314.125 109.79 315.992 111.857C317.827 113.892 318.728 116.509 318.696 119.709L318.588 130.221L284.99 129.877ZM302.892 125.452L314.891 125.575L314.943 120.487C314.971 117.831 314.461 116.034 313.415 115.095C312.368 114.124 310.917 113.629 309.061 113.61C307.174 113.591 305.695 114.2 304.627 115.437C303.526 116.642 302.963 118.556 302.936 121.18L302.892 125.452ZM288.541 125.305L299.052 125.412L299.096 121.093C299.116 119.205 298.666 117.76 297.749 116.759C296.831 115.757 295.508 115.248 293.78 115.23C292.052 115.212 290.768 115.615 289.928 116.438C289.055 117.23 288.609 118.649 288.588 120.697L288.541 125.305ZM285.314 98.2234L318.912 98.5674L318.865 103.175L285.267 102.831L285.314 98.2234ZM289.526 80.68L319.092 80.9827L319.045 85.5904L289.478 85.2877L289.39 93.9273L285.363 93.454L285.579 72.2871L289.607 72.7604L289.526 80.68ZM291.835 51.9842C291.094 52.5527 290.493 53.3466 290.035 54.3659C289.545 55.385 289.292 56.6304 289.277 58.1024C289.262 59.5423 289.617 60.778 290.343 61.8095C291.037 62.8086 292.069 63.5552 293.44 64.0493C295.768 64.8732 298.899 65.3052 302.835 65.3455C307.955 65.398 311.418 64.7134 313.225 63.2918C314.902 61.9969 315.755 59.9895 315.783 57.2697C315.796 55.9897 315.551 54.8992 315.048 53.998C314.514 53.0645 313.865 52.3538 313.102 51.8659C312.307 51.3458 311.271 50.9352 309.994 50.6341C308.015 50.1658 305.825 49.9193 303.425 49.8948C301.026 49.8702 299.265 49.9002 298.144 49.9847C296.991 50.0689 295.837 50.2811 294.682 50.6213C293.494 50.9292 292.546 51.3835 291.835 51.9842ZM285.161 56.9082C285.243 48.8446 290.836 44.8696 301.94 44.9833C307.667 45.0419 312.104 46.1914 315.249 48.4317C318.394 50.6721 319.945 53.9681 319.9 58.3199C319.818 66.3835 314.225 70.3584 303.121 70.2447C297.393 70.1861 292.957 69.0366 289.812 66.7963C286.667 64.556 285.116 61.2599 285.161 56.9082Z" fill="white" fill-opacity="0.54"/>
<defs>
<filter id="filter0_d_4_17" x="0" y="8" width="342" height="215" filterUnits="userSpaceOnUse" color-interpolation-filters="sRGB">
<feFlood flood-opacity="0" result="BackgroundImageFix"/>
<feColorMatrix in="SourceAlpha" type="matrix" values="0 0 0 0 0 0 0 0 0 0 0 0 0 0 0 0 0 0 127 0" result="hardAlpha"/>
<feOffset dy="4"/>
<feGaussianBlur stdDeviation="2"/>
<feComposite in2="hardAlpha" operator="out"/>
<feColorMatrix type="matrix" values="0 0 0 0 0 0 0 0 0 0 0 0 0 0 0 0 0 0 0.25 0"/>
<feBlend mode="normal" in2="BackgroundImageFix" result="effect1_dropShadow_4_17"/>
<feBlend mode="normal" in="SourceGraphic" in2="effect1_dropShadow_4_17" result="shape"/>
</filter>
</defs>
</svg>
